# xmcd
#
# Track frame offsets:
#	182
#	14697
#	30602
#	45937
#	68245
#	84292
#	99745
#	118420
#	132677
#	144307
#	160705
#	178795
#
# Disc length: 2605 seconds
#
# Revision: 0
# Processed by: cddbd v1.4PL0 Copyright (c) Steve Scherf et al.
# Submitted via: dBpowerAMP V4.0
#
DISCID=a30a2b0c
DTITLE=Alabama - Alabama and Shenandoah - Great Country Hits
DYEAR=1900
DGENRE=Country
TTITLE0=Song Of The South
TTITLE1=Hey Mister (I Need This Job)
TTITLE2=Can't Keep A Good Man Down
TTITLE3=Tar Top
TTITLE4=Leavin's Been A Long Time Comin'
TTITLE5=I'll Go Down Loving You
TTITLE6=Roll On (Eighteen Wheeler)
TTITLE7=Rock My Baby
TTITLE8=The Blues Are Coming Over To Your House
TTITLE9=The Closer You Get
TTITLE10=Fallin' Again
TTITLE11=I Want To Be Loved Like That
EXTD=
EXTT0=
EXTT1=
EXTT2=
EXTT3=
EXTT4=
EXTT5=
EXTT6=
EXTT7=
EXTT8=
EXTT9=
EXTT10=
EXTT11=
PLAYORDER=
